# xmcd CD database file
#
# Track frame offsets:
#	150
#	5450
#	30459
#	53645
#	81193
#	83097
#	84879
#	85864
#	94723
#	95847
#	111996
#	113681
#	116248
#	116844
#	119134
#	120669
#	125052
#	126004
#	136333
#	137211
#	143618
#	145394
#	148245
#	149721
#	152061
#	153830
#	156500
#	158724
#	162302
#	169303
#	177928
#	182600
#	187836
#	194331
#	201037
#	202805
#	205187
#	205637
#	210373
#	218882
#	219457
#	221707
#	222318
#	227415
#	227930
#	233253
#	234232
#	238930
#	240572
#	241650
#	242694
#	245176
#	254796
#	255334
#	257390
#	259061
#	261440
#	262211
#	264659
#	265444
#	273748
#	276456
#	284048
#	285284
#	293649
#	297596
#	298468
#	305578
#	306428
#	311421
#	312827
#	321465
#	322448
#	328128
#	329468
#	332836
#	333465
#	337769
#	338411
#	343252
#	344254
#	345733
#
# Disc length: 4654 seconds
#
# Revision: 0
# Processed by: cddbd v1.5.2PL0 Copyright (c) Steve Scherf et al.
# Submitted via: CDex 1.94
#
DISCID=1b122c52
DTITLE=Alex and Lee Knights Wilson - Find The Rhythm!
DYEAR=2012
DGENRE=Salsa
TTITLE0=01
TTITLE1=02
TTITLE2=03
TTITLE3=04
TTITLE4=05
TTITLE5=06
TTITLE6=07
TTITLE7=08
TTITLE8=09
TTITLE9=10
TTITLE10=11
TTITLE11=12
TTITLE12=13
TTITLE13=14
TTITLE14=15
TTITLE15=16
TTITLE16=17
TTITLE17=18
TTITLE18=19
TTITLE19=20
TTITLE20=21
TTITLE21=22
TTITLE22=2
TTITLE23=24
TTITLE24=25
TTITLE25=26
TTITLE26=27
TTITLE27=28
TTITLE28=29
TTITLE29=30
TTITLE30=31
TTITLE31=32
TTITLE32=33
TTITLE33=34
TTITLE34=35
TTITLE35=36
TTITLE36=37
TTITLE37=38
TTITLE38=39
TTITLE39=40
TTITLE40=41
TTITLE41=42
TTITLE42=43
TTITLE43=444
TTITLE44=45
TTITLE45=46
TTITLE46=47
TTITLE47=48
TTITLE48=49
TTITLE49=50
TTITLE50=51
TTITLE51=52
TTITLE52=53
TTITLE53=54
TTITLE54=55
TTITLE55=56
TTITLE56=57
TTITLE57=58
TTITLE58=59
TTITLE59=60
TTITLE60=61
TTITLE61=62
TTITLE62=63
TTITLE63=64
TTITLE64=65
TTITLE65=66
TTITLE66=67
TTITLE67=68
TTITLE68=69
TTITLE69=70
TTITLE70=71
TTITLE71=72
TTITLE72=73
TTITLE73=74
TTITLE74=75
TTITLE75=76
TTITLE76=77
TTITLE77=78
TTITLE78=79
TTITLE79=80
TTITLE80=81
TTITLE81=82
EXTD=YEAR: 2012
EXTT0=
EXTT1=
EXTT2=
EXTT3=
EXTT4=
EXTT5=
EXTT6=
EXTT7=
EXTT8=
EXTT9=
EXTT10=
EXTT11=
EXTT12=
EXTT13=
EXTT14=
EXTT15=
EXTT16=
EXTT17=
EXTT18=
EXTT19=
EXTT20=
EXTT21=
EXTT22=
EXTT23=
EXTT24=
EXTT25=
EXTT26=
EXTT27=
EXTT28=
EXTT29=
EXTT30=
EXTT31=
EXTT32=
EXTT33=
EXTT34=
EXTT35=
EXTT36=
EXTT37=
EXTT38=
EXTT39=
EXTT40=
EXTT41=
EXTT42=
EXTT43=
EXTT44=
EXTT45=
EXTT46=
EXTT47=
EXTT48=
EXTT49=
EXTT50=
EXTT51=
EXTT52=
EXTT53=
EXTT54=
EXTT55=
EXTT56=
EXTT57=
EXTT58=
EXTT59=
EXTT60=
EXTT61=
EXTT62=
EXTT63=
EXTT64=
EXTT65=
EXTT66=
EXTT67=
EXTT68=
EXTT69=
EXTT70=
EXTT71=
EXTT72=
EXTT73=
EXTT74=
EXTT75=
EXTT76=
EXTT77=
EXTT78=
EXTT79=
EXTT80=
EXTT81=
PLAYORDER=
